<svg xmlns="http://www.w3.org/2000/svg" viewBox="0 0 576 512">
  <path fill="#FF6000" d="M520.4 196.1c0-7.9-0.3-15.7-0.9-23.4H48.9c-0.6 7.7-0.9 15.5-0.9 23.4v119.8c0 7.9 0.3 15.7 0.9 23.4h470.6c0.6-7.7 0.9-15.5 0.9-23.4V196.1z"/>
  <path fill="#4D4D4D" d="M528 32H48C21.5 32 0 53.5 0 80v352c0 26.5 21.5 48 48 48h480c26.5 0 48-21.5 48-48V80c0-26.5-21.5-48-48-48zm-44.1 138.9c28.3 12.3 48.1 40.5 48.1 73.2 0 32.7-19.8 60.9-48.1 73.2V170.9zm-381.8 0v146.4c-28.3-12.3-48.1-40.5-48.1-73.2 0-32.7 19.8-60.9 48.1-73.2zm381.8 146.4c-28.3 12.3-48.1 40.5-48.1 73.2 0 32.7 19.8 60.9 48.1 73.2V317.3zm-381.8 0v146.4c-28.3-12.3-48.1-40.5-48.1-73.2 0-32.7 19.8-60.9 48.1-73.2z"/>
</svg> 